# Blender v2.90.1 OBJ File: ''
# www.blender.org
mtllib rockc.mtl
o rockc
v -0.197093 -0.003149 0.036121
v -0.178388 0.050433 0.048296
v -0.181551 0.050433 0.018144
v -0.142012 0.079876 0.042230
v -0.145995 0.079876 0.021603
v -0.125230 0.083975 0.045179
v -0.131035 0.083975 0.015116
v -0.001828 0.095052 0.014574
v -0.171959 0.042606 0.032125
v -0.178388 0.050433 0.048296
v -0.144063 0.067177 0.030649
v -0.142012 0.079876 0.042230
v -0.145995 0.079876 0.021603
v -0.181551 0.050433 0.018144
v -0.201754 -0.003178 -0.035289
v -0.183757 0.050308 -0.013191
v -0.177793 0.050308 -0.050546
v -0.139850 0.080799 -0.009934
v -0.136420 0.080799 -0.031418
v -0.121486 0.084083 -0.000966
v -0.116487 0.084083 -0.032278
v -0.001828 0.095052 0.014574
v -0.171024 0.042202 -0.028707
v -0.183757 0.050308 -0.013191
v -0.137743 0.067648 -0.021930
v -0.139850 0.080799 -0.009934
v -0.136420 0.080799 -0.031418
v -0.177793 0.050308 -0.050546
v -0.168350 -0.003340 -0.114603
v -0.161473 0.049603 -0.072416
v -0.137176 0.049603 -0.104186
v -0.129286 0.084561 -0.062447
v -0.117404 0.084561 -0.077083
v -0.109184 0.084472 -0.044042
v -0.092214 0.084472 -0.063805
v -0.001828 0.095052 0.014574
v -0.140772 0.039929 -0.084094
v -0.122508 0.073165 -0.070537
v -0.087687 -0.003084 -0.139156
v -0.097264 0.056037 -0.114496
v -0.074413 0.056037 -0.129431
v -0.077659 0.077799 -0.091840
v -0.067081 0.077799 -0.098458
v -0.074115 0.083732 -0.074718
v -0.052776 0.083732 -0.089044
v -0.001828 0.095052 0.014574
v -0.081693 0.048836 -0.115441
v -0.074855 0.065346 -0.099320
v -0.074413 0.056037 -0.129431
v -0.081693 0.048836 -0.115441
v -0.087687 -0.003084 -0.139156
v 0.177896 0.050433 0.018144
v 0.174732 0.050433 0.048296
v 0.193437 -0.003149 0.036121
v 0.138356 0.079876 0.042230
v 0.142339 0.079876 0.021603
v 0.121574 0.083975 0.045179
v 0.127379 0.083975 0.015116
v 0.174732 0.050433 0.048296
v 0.168303 0.042606 0.032125
v 0.140407 0.067177 0.030649
v 0.138356 0.079876 0.042230
v 0.142339 0.079876 0.021603
v 0.177896 0.050433 0.018144
v 0.174137 0.050308 -0.050546
v 0.180101 0.050308 -0.013191
v 0.198098 -0.003178 -0.035289
v 0.136194 0.080799 -0.009934
v 0.132764 0.080799 -0.031418
v 0.117830 0.084083 -0.000966
v 0.112831 0.084083 -0.032278
v 0.180101 0.050308 -0.013191
v 0.167368 0.042202 -0.028707
v 0.134088 0.067647 -0.021930
v 0.136194 0.080799 -0.009934
v 0.132764 0.080799 -0.031418
v 0.174137 0.050308 -0.050546
v 0.133520 0.049603 -0.104186
v 0.157817 0.049603 -0.072416
v 0.164695 -0.003340 -0.114603
v 0.125631 0.084561 -0.062447
v 0.113748 0.084561 -0.077083
v 0.105528 0.084472 -0.044042
v 0.088558 0.084472 -0.063805
v 0.137117 0.039929 -0.084094
v 0.118852 0.073165 -0.070537
v 0.070757 0.056037 -0.129431
v 0.093609 0.056036 -0.114496
v 0.084032 -0.003084 -0.139156
v 0.074004 0.077799 -0.091840
v 0.063425 0.077799 -0.098458
v 0.070459 0.083732 -0.074718
v 0.049121 0.083732 -0.089044
v 0.078037 0.048836 -0.115441
v 0.071199 0.065346 -0.099320
v 0.084032 -0.003084 -0.139156
v 0.078037 0.048836 -0.115441
v 0.070757 0.056037 -0.129431
v -0.001564 0.082832 0.073369
v 0.001815 0.109575 -0.066873
v 0.056110 0.081069 0.028319
v -0.061871 0.083210 0.028209
v 0.058642 0.116534 -0.051988
v -0.057491 0.116534 -0.052073
v -0.143478 0.118192 0.042399
v -0.047708 0.118463 0.113857
v -0.002527 0.114331 0.117118
v 0.043599 0.118463 0.113925
v 0.139475 0.118192 0.042610
v -0.047708 0.138180 0.113857
v -0.143478 0.118192 0.042399
v -0.047708 0.118463 0.113857
v -0.002527 0.114331 0.117118
v 0.043599 0.138180 0.113925
v 0.043599 0.118463 0.113925
v 0.139475 0.118192 0.042610
v 0.058642 0.116534 -0.051988
v 0.001815 0.109575 -0.066873
v 0.070117 0.136785 0.031203
v 0.000048 0.153304 0.017834
v -0.057491 0.116534 -0.052073
v -0.073769 0.134485 0.031160
v -0.002682 0.141377 0.078674
v -0.070830 0.078550 0.054092
v -0.068989 0.081645 0.107402
v -0.001564 0.082832 0.073369
v -0.106017 0.076219 0.064039
v -0.085749 0.080104 0.100117
v -0.068989 0.081645 0.107402
v -0.070830 0.078550 0.054092
v -0.001564 0.082832 0.073369
v -0.106017 0.076219 0.064039
v -0.085749 0.080104 0.100117
v -0.105002 0.066646 0.094251
v -0.089719 0.075888 0.129826
v -0.121594 0.062907 0.126033
v -0.127799 0.068568 0.095865
v -0.127799 0.068568 0.095865
v -0.123842 0.070762 0.126946
v -0.121594 0.062907 0.126033
v -0.094979 0.037640 0.154069
v -0.071868 0.055928 0.138741
v -0.026298 0.041991 0.176831
v -0.126970 0.058077 0.121358
v -0.111070 0.080744 0.114856
v -0.060995 0.086085 0.140171
v -0.022699 0.055064 0.176831
v -0.085580 0.066882 0.164972
v -0.109511 0.082406 0.096082
v -0.089719 0.075888 0.129826
v -0.123842 0.070762 0.126946
v -0.060995 0.086085 0.140171
v -0.111070 0.080744 0.114856
v -0.126970 0.058077 0.121358
v -0.094979 0.037640 0.154069
v -0.085580 0.066882 0.164972
v -0.022699 0.055064 0.176831
v -0.026298 0.041991 0.176831
v -0.071868 0.055928 0.138741
v 0.065470 0.081645 0.107402
v 0.067311 0.078550 0.054092
v 0.102498 0.076219 0.064039
v 0.082230 0.080104 0.100117
v 0.067311 0.078550 0.054092
v 0.065470 0.081645 0.107402
v 0.102498 0.076219 0.064039
v 0.082230 0.080104 0.100117
v 0.101483 0.066646 0.094251
v 0.124280 0.068568 0.095865
v 0.118075 0.062907 0.126033
v 0.086200 0.075888 0.129826
v 0.124280 0.068568 0.095865
v 0.118075 0.062907 0.126033
v 0.120323 0.070762 0.126946
v 0.019965 0.057993 0.175616
v 0.068349 0.055928 0.137526
v 0.082061 0.066882 0.163756
v 0.057476 0.086085 0.138955
v 0.107551 0.080744 0.113640
v 0.123451 0.058077 0.120143
v 0.091460 0.037640 0.152854
v 0.022779 0.041929 0.175616
v 0.105991 0.082406 0.096083
v 0.105991 0.082406 0.096083
v 0.086200 0.075888 0.129826
v 0.107551 0.080744 0.113640
v 0.057476 0.086085 0.138955
v 0.120323 0.070762 0.126946
v 0.123451 0.058077 0.120143
v 0.091460 0.037640 0.152854
v 0.022779 0.041929 0.175616
v 0.082061 0.066882 0.163756
v 0.068349 0.055928 0.137526
v 0.019965 0.057993 0.175616
vt 0.355469 0.066406
vt 0.319502 0.199629
vt 0.398438 0.195312
vt 0.328125 0.300781
vt 0.375000 0.296875
vt 0.322485 0.345013
vt 0.382812 0.343750
vt 0.340691 0.462162
vt 0.359375 0.187500
vt 0.398438 0.195312
vt 0.355469 0.257812
vt 0.375000 0.296875
vt 0.328125 0.300781
vt 0.319502 0.199629
vt 0.476562 0.062500
vt 0.433594 0.175781
vt 0.492188 0.175781
vt 0.433594 0.277344
vt 0.484375 0.277344
vt 0.425781 0.328125
vt 0.496094 0.328125
vt 0.460938 0.480469
vt 0.464844 0.164062
vt 0.492188 0.175781
vt 0.464844 0.261719
vt 0.484375 0.277344
vt 0.433594 0.277344
vt 0.433594 0.175781
vt 0.593750 0.085938
vt 0.539062 0.167969
vt 0.587891 0.179688
vt 0.535156 0.265625
vt 0.585938 0.261719
vt 0.527344 0.316406
vt 0.589844 0.312500
vt 0.593750 0.472656
vt 0.558594 0.171875
vt 0.558594 0.250000
vt 0.742188 0.128906
vt 0.662109 0.167969
vt 0.701172 0.205078
vt 0.628906 0.273438
vt 0.679688 0.277344
vt 0.621094 0.312500
vt 0.683594 0.308594
vt 0.656250 0.437500
vt 0.691406 0.183594
vt 0.667969 0.218750
vt 0.398438 0.195312
vt 0.398438 0.195312
vt 0.355469 0.066406
vt 0.398438 0.195312
vt 0.319502 0.199629
vt 0.355469 0.066406
vt 0.328125 0.300781
vt 0.375000 0.296875
vt 0.322485 0.345013
vt 0.382812 0.343750
vt 0.398438 0.195312
vt 0.359375 0.187500
vt 0.355469 0.257812
vt 0.375000 0.296875
vt 0.328125 0.300781
vt 0.319502 0.199629
vt 0.492188 0.175781
vt 0.433594 0.175781
vt 0.476562 0.062500
vt 0.433594 0.277344
vt 0.484375 0.277344
vt 0.425781 0.328125
vt 0.496094 0.328125
vt 0.492188 0.175781
vt 0.464844 0.164062
vt 0.464844 0.261719
vt 0.484375 0.277344
vt 0.433594 0.277344
vt 0.433594 0.175781
vt 0.587891 0.179688
vt 0.539062 0.167969
vt 0.593750 0.085938
vt 0.535156 0.265625
vt 0.585938 0.261719
vt 0.527344 0.316406
vt 0.589844 0.312500
vt 0.558594 0.171875
vt 0.558594 0.250000
vt 0.701172 0.205078
vt 0.662109 0.167969
vt 0.742188 0.128906
vt 0.628906 0.273438
vt 0.679688 0.277344
vt 0.621094 0.312500
vt 0.683594 0.308594
vt 0.691406 0.183594
vt 0.667969 0.218750
vt 0.355469 0.066406
vt 0.398438 0.195312
vt 0.398438 0.195312
vt 0.984375 0.812500
vt 0.984375 0.417969
vt 0.851562 0.699219
vt 0.851562 0.699219
vt 0.800781 0.507812
vt 0.800781 0.507812
vt 0.570312 0.734375
vt 0.847656 0.984375
vt 0.984375 0.988281
vt 0.847656 0.984375
vt 0.570312 0.734375
vt 0.164062 0.812500
vt 0.410156 0.632812
vt 0.179688 0.867188
vt 0.023438 0.894531
vt 0.164062 0.812500
vt 0.179688 0.867188
vt 0.410156 0.632812
vt 0.171875 0.347656
vt 0.007812 0.320312
vt 0.187500 0.566406
vt 0.007812 0.554688
vt 0.171875 0.347656
vt 0.187500 0.566406
vt 0.023438 0.734375
vt 0.703135 0.321088
vt 0.895264 0.357105
vt 0.752725 0.506085
vt 0.753355 0.197872
vt 0.876158 0.287019
vt 0.106050 0.260565
vt 0.294315 0.199825
vt 0.262172 0.417095
vt 0.240278 0.087386
vt 0.122810 0.182284
vt 0.862593 0.207113
vt 0.985573 0.281794
vt 0.984596 0.157961
vt 0.877599 0.127635
vt 0.121851 0.027255
vt 0.019252 0.058768
vt 0.026965 0.037417
vt 0.237006 0.983603
vt 0.201902 0.974042
vt 0.056516 0.962776
vt 0.347857 0.989839
vt 0.323615 0.981613
vt 0.180796 0.964710
vt 0.039682 0.956919
vt 0.202714 0.934247
vt 0.101562 0.085938
vt 0.028924 0.176665
vt 0.643171 0.890229
vt 0.444423 0.982649
vt 0.642545 0.962486
vt 0.681266 0.857858
vt 0.527180 0.759028
vt 0.479761 0.840348
vt 0.264122 0.848621
vt 0.275338 0.802580
vt 0.464585 0.797680
vt 0.895264 0.357105
vt 0.703135 0.321088
vt 0.753355 0.197872
vt 0.876158 0.287019
vt 0.294315 0.199825
vt 0.106050 0.260565
vt 0.240278 0.087386
vt 0.122810 0.182284
vt 0.862593 0.207113
vt 0.877599 0.127635
vt 0.984596 0.157961
vt 0.985573 0.281794
vt 0.121851 0.027255
vt 0.026965 0.037417
vt 0.019252 0.058768
vt 0.039682 0.956919
vt 0.201902 0.974042
vt 0.202714 0.934247
vt 0.177081 0.964870
vt 0.321814 0.981331
vt 0.349071 0.989407
vt 0.240192 0.983419
vt 0.057535 0.963154
vt 0.121094 0.097656
vt 0.101562 0.085938
vt 0.028924 0.176665
vt 0.642545 0.962486
vt 0.444423 0.982649
vt 0.643171 0.890229
vt 0.681266 0.857858
vt 0.527180 0.759028
vt 0.275338 0.802580
vt 0.479761 0.840348
vt 0.464602 0.797709
vt 0.264122 0.848621
vn -0.3650 -0.9291 0.0591
vn -0.3004 0.1648 0.9395
vn -0.4709 0.1768 -0.8643
vn 0.5488 -0.7784 0.3047
vn 0.5036 -0.6017 -0.6200
vn 0.5035 -0.6017 -0.6200
vn 0.1568 -0.9872 -0.0303
vn 0.1649 -0.9858 -0.0318
vn 0.0294 0.9984 -0.0493
vn 0.7764 -0.6217 -0.1034
vn -0.3003 0.1648 0.9395
vn -0.3650 -0.9291 0.0592
vn 0.8318 -0.5376 -0.1382
vn -0.4709 0.1769 -0.8643
vn -0.4322 -0.8982 -0.0798
vn -0.5299 0.1770 0.8294
vn -0.1854 0.1820 -0.9657
vn 0.0067 0.9523 0.3050
vn 0.1545 0.9442 -0.2910
vn -0.1232 0.9922 -0.0197
vn -0.1270 0.9917 -0.0203
vn 0.0293 0.9984 -0.0493
vn 0.6998 -0.6980 0.1521
vn -0.4323 -0.8982 -0.0797
vn 0.8188 -0.5608 0.1225
vn 0.0068 0.9523 0.3050
vn 0.1546 0.9442 -0.2910
vn -0.3671 -0.8148 -0.4488
vn -0.7944 0.0988 0.5993
vn 0.3645 0.2006 -0.9094
vn -0.0509 0.9533 0.2978
vn 0.2702 0.9561 -0.1133
vn -0.0301 0.9992 -0.0259
vn -0.0349 0.9989 -0.0299
vn 0.6279 -0.6283 0.4593
vn 0.7451 -0.4161 0.5212
vn -0.0586 -0.9446 -0.3230
vn -0.9778 0.1605 0.1350
vn 0.5779 0.2897 -0.7630
vn -0.2352 0.9707 0.0499
vn 0.1428 0.9750 -0.1701
vn -0.1164 0.9773 -0.1769
vn -0.2352 0.9707 0.0500
vn -0.1200 0.9765 -0.1788
vn 0.4396 -0.5677 0.6961
vn 0.3621 -0.6518 0.6664
vn 0.5779 0.2897 -0.7629
vn -0.0587 -0.9446 -0.3231
vn 0.4709 0.1768 -0.8643
vn 0.3004 0.1648 0.9395
vn 0.3650 -0.9291 0.0591
vn 0.0063 0.9607 0.2774
vn 0.0426 0.9566 -0.2882
vn 0.1568 0.9872 0.0303
vn 0.1649 0.9858 0.0318
vn 0.3650 -0.9291 0.0592
vn 0.3003 0.1648 0.9395
vn -0.7764 -0.6217 -0.1034
vn -0.8318 -0.5376 -0.1382
vn 0.0062 0.9608 0.2773
vn 0.4709 0.1769 -0.8643
vn 0.1854 0.1820 -0.9657
vn 0.5299 0.1770 0.8294
vn 0.4322 -0.8982 -0.0798
vn -0.0067 0.9523 0.3050
vn -0.1545 0.9442 -0.2910
vn 0.1232 0.9922 -0.0197
vn 0.1270 0.9917 -0.0203
vn 0.4323 -0.8982 -0.0797
vn -0.6998 -0.6980 0.1521
vn -0.8188 -0.5608 0.1225
vn -0.0068 0.9523 0.3050
vn -0.1546 0.9442 -0.2910
vn -0.3645 0.2006 -0.9094
vn 0.7944 0.0988 0.5993
vn 0.3671 -0.8148 -0.4488
vn 0.0509 0.9533 0.2978
vn -0.2702 0.9561 -0.1133
vn 0.0301 0.9992 -0.0259
vn 0.0349 0.9989 -0.0299
vn -0.6279 -0.6283 0.4593
vn -0.7451 -0.4161 0.5212
vn -0.5779 0.2897 -0.7630
vn 0.9778 0.1605 0.1350
vn 0.0586 -0.9446 -0.3230
vn 0.2352 0.9707 0.0499
vn -0.1428 0.9750 -0.1701
vn 0.2352 0.9707 0.0500
vn 0.1164 0.9773 -0.1769
vn 0.1200 0.9765 -0.1788
vn -0.4396 -0.5677 0.6961
vn -0.3621 -0.6518 0.6664
vn 0.0587 -0.9446 -0.3231
vn -0.5779 0.2897 -0.7629
vn -0.0057 -0.9566 0.2913
vn -0.0060 -0.0735 -0.9973
vn 0.2118 -0.9770 -0.0260
vn -0.2286 -0.9730 -0.0329
vn 0.4405 0.1352 -0.8875
vn -0.4164 0.1442 -0.8977
vn -0.9977 0.0391 0.0557
vn -0.3403 -0.4432 0.8293
vn -0.0018 -0.1559 0.9878
vn 0.3371 -0.4394 0.8326
vn 0.9969 0.0343 0.0710
vn -0.2295 0.6460 0.7280
vn -0.9977 0.0391 0.0556
vn -0.0017 -0.1559 0.9878
vn 0.2271 0.6405 0.7336
vn 0.3371 -0.4395 0.8326
vn 0.2420 0.9620 -0.1263
vn -0.0071 0.9774 -0.2114
vn -0.4163 0.1442 -0.8977
vn -0.2315 0.9633 -0.1359
vn 0.0047 0.9499 0.3125
vn -0.4266 -0.8984 -0.1045
vn -0.0641 -0.9967 0.0505
vn -0.0393 -0.0592 0.9975
vn -0.9511 -0.2872 0.1137
vn -0.0642 -0.9967 0.0505
vn -0.4265 -0.8984 -0.1045
vn -0.2812 0.9425 0.1808
vn -0.8080 -0.1744 -0.5629
vn 0.4132 0.9072 -0.0791
vn 0.9213 0.2243 0.3175
vn -0.8557 0.4370 0.2771
vn -0.3851 -0.8874 0.2534
vn 0.4349 -0.4947 -0.7524
vn 0.9016 -0.1906 0.3883
vn -0.7766 -0.4762 -0.4124
vn -0.1638 0.6515 -0.7407
vn 0.4648 0.8190 -0.3365
vn 0.8367 -0.2475 0.4886
vn -0.3427 0.3939 0.8529
vn 0.2572 -0.9657 0.0352
vn -0.8079 -0.1744 -0.5629
vn -0.8557 0.4369 0.2772
vn -0.1638 0.6516 -0.7407
vn -0.3427 0.3938 0.8529
vn 0.8367 -0.2476 0.4886
vn 0.4348 -0.4948 -0.7525
vn 0.0190 -0.9989 0.0437
vn -0.0571 0.9953 0.0778
vn 0.0393 -0.0592 0.9975
vn 0.9511 -0.2872 0.1137
vn -0.0571 0.9953 0.0779
vn 0.9511 -0.2872 0.1138
vn 0.2812 0.9425 0.1808
vn -0.9213 0.2243 0.3175
vn -0.4132 0.9072 -0.0791
vn 0.8079 -0.1744 -0.5629
vn 0.8386 0.4088 0.3600
vn -0.8415 -0.2051 0.4998
vn -0.4465 -0.4947 -0.7456
vn 0.3366 0.3897 0.8573
vn -0.4615 0.8164 -0.3472
vn 0.1647 0.6435 -0.7475
vn 0.7695 -0.4711 -0.4312
vn 0.3782 -0.8900 0.2546
vn -0.9015 -0.1915 0.3882
vn -0.2572 -0.9657 0.0353
vn -0.2572 -0.9657 0.0352
vn 0.8386 0.4087 0.3600
vn 0.7696 -0.4710 -0.4312
vn 0.3366 0.3896 0.8573
vn -0.8415 -0.2050 0.4998
usemtl Material.000001
s 1
f 1/1/1 2/2/2 3/3/3
f 4/4/4 3/3/3 2/2/2
f 3/3/3 4/4/4 5/5/5
f 5/5/6 6/6/7 4/4/4
f 6/6/7 5/5/6 7/7/8
f 7/7/8 8/8/9 6/6/7
f 9/9/10 10/10/11 1/1/12
f 11/11/13 10/10/11 9/9/10
f 10/10/11 11/11/13 12/12/4
f 11/11/13 13/13/5 12/12/4
f 14/14/14 11/11/13 9/9/10
f 11/11/13 14/14/14 13/13/5
f 14/14/14 9/9/10 1/1/12
f 15/15/15 16/16/16 17/17/17
f 18/18/18 17/17/17 16/16/16
f 17/17/17 18/18/18 19/19/19
f 20/20/20 19/19/19 18/18/18
f 19/19/19 20/20/20 21/21/21
f 22/22/22 21/21/21 20/20/20
f 23/23/23 24/24/16 15/15/24
f 25/25/25 24/24/16 23/23/23
f 24/24/16 25/25/25 26/26/26
f 25/25/25 27/27/27 26/26/26
f 28/28/17 25/25/25 23/23/23
f 25/25/25 28/28/17 27/27/27
f 28/28/17 23/23/23 15/15/24
f 29/29/28 30/30/29 31/31/30
f 32/32/31 31/31/30 30/30/29
f 31/31/30 32/32/31 33/33/32
f 34/34/33 33/33/32 32/32/31
f 33/33/32 34/34/33 35/35/34
f 36/36/9 35/35/34 34/34/33
f 37/37/35 30/30/29 29/29/28
f 38/38/36 30/30/29 37/37/35
f 30/30/29 38/38/36 32/32/31
f 38/38/36 33/33/32 32/32/31
f 31/31/30 38/38/36 37/37/35
f 38/38/36 31/31/30 33/33/32
f 31/31/30 37/37/35 29/29/28
f 39/39/37 40/40/38 41/41/39
f 42/42/40 41/41/39 40/40/38
f 41/41/39 42/42/40 43/43/41
f 44/44/42 43/43/41 42/42/43
f 43/43/41 44/44/42 45/45/44
f 46/46/22 45/45/44 44/44/42
f 47/47/45 40/40/38 39/39/37
f 48/48/46 40/40/38 47/47/45
f 40/40/38 48/48/46 42/42/40
f 48/48/46 43/43/41 42/42/40
f 41/41/39 48/48/46 47/47/45
f 48/48/46 41/41/39 43/43/41
f 49/49/47 50/50/45 51/51/48
f 52/52/49 53/53/50 54/54/51
f 53/53/50 52/52/49 55/55/52
f 56/56/53 55/55/52 52/52/49
f 55/55/52 56/56/53 57/57/54
f 58/58/55 57/57/54 56/56/53
f 57/57/54 58/58/55 8/8/22
f 54/54/56 59/59/57 60/60/58
f 60/60/58 59/59/57 61/61/59
f 62/62/60 61/61/59 59/59/57
f 62/62/60 63/63/53 61/61/59
f 60/60/58 61/61/59 64/64/61
f 63/63/53 64/64/61 61/61/59
f 54/54/56 60/60/58 64/64/61
f 65/65/62 66/66/63 67/67/64
f 66/66/63 65/65/62 68/68/65
f 69/69/66 68/68/65 65/65/62
f 68/68/65 69/69/66 70/70/67
f 71/71/68 70/70/67 69/69/66
f 70/70/67 71/71/68 22/22/9
f 67/67/69 72/72/63 73/73/70
f 73/73/70 72/72/63 74/74/71
f 75/75/72 74/74/71 72/72/63
f 75/75/72 76/76/73 74/74/71
f 73/73/70 74/74/71 77/77/62
f 76/76/73 77/77/62 74/74/71
f 67/67/69 73/73/70 77/77/62
f 78/78/74 79/79/75 80/80/76
f 79/79/75 78/78/74 81/81/77
f 82/82/78 81/81/77 78/78/74
f 81/81/77 82/82/78 83/83/79
f 84/84/80 83/83/79 82/82/78
f 83/83/79 84/84/80 36/36/9
f 80/80/76 79/79/75 85/85/81
f 85/85/81 79/79/75 86/86/82
f 81/81/77 86/86/82 79/79/75
f 81/81/77 82/82/78 86/86/82
f 85/85/81 86/86/82 78/78/74
f 82/82/78 78/78/74 86/86/82
f 80/80/76 85/85/81 78/78/74
f 87/87/83 88/88/84 89/89/85
f 88/88/84 87/87/83 90/90/86
f 91/91/87 90/90/86 87/87/83
f 90/90/88 91/91/87 92/92/89
f 93/93/90 92/92/89 91/91/87
f 92/92/89 93/93/90 46/46/9
f 89/89/85 88/88/84 94/94/91
f 94/94/91 88/88/84 95/95/92
f 90/90/86 95/95/92 88/88/84
f 90/90/86 91/91/87 95/95/92
f 94/94/91 95/95/92 87/87/83
f 91/91/87 87/87/83 95/95/92
f 96/96/93 97/97/91 98/98/94
f 99/99/95 100/100/96 101/101/97
f 99/99/95 102/102/98 100/100/96
f 101/101/97 100/100/96 103/103/99
f 100/100/96 102/102/98 104/104/100
f 102/102/98 105/105/101 104/104/100
f 102/102/98 106/106/102 105/105/101
f 106/106/102 102/102/98 99/99/95
f 106/106/102 99/99/95 107/107/103
f 101/101/97 108/108/104 99/99/95
f 108/108/104 101/101/97 109/109/105
f 109/109/105 101/101/97 103/103/99
f 110/110/106 111/111/107 112/112/102
f 112/112/102 113/113/108 110/110/106
f 114/114/109 115/115/110 116/116/105
f 117/117/99 118/118/96 119/119/111
f 120/120/112 119/119/111 118/118/96
f 121/121/113 122/122/114 118/118/96
f 120/120/112 118/118/96 122/122/114
f 111/111/107 122/122/114 121/121/113
f 110/110/106 122/122/114 111/111/107
f 120/120/112 110/110/106 123/123/115
f 123/123/115 110/110/106 113/113/108
f 114/114/109 119/119/111 120/120/112
f 119/119/111 114/114/109 116/116/105
f 119/119/111 116/116/105 117/117/99
f 114/114/109 120/120/112 123/123/115
f 124/124/116 125/125/117 126/126/95
f 125/125/117 127/127/118 128/128/119
f 124/124/116 127/127/118 125/125/117
f 129/129/120 130/130/121 131/131/95
f 129/129/120 132/132/118 130/130/121
f 133/133/119 132/132/118 129/129/120
f 134/134/122 128/128/119 127/127/118
f 134/134/122 135/135/123 128/128/119
f 134/134/122 136/136/124 135/135/123
f 134/134/122 137/137/125 136/136/124
f 134/134/122 127/127/118 137/137/125
f 138/138/125 139/139/126 140/140/124
f 141/141/127 142/142/128 143/143/129
f 144/144/130 142/142/128 141/141/127
f 145/145/131 142/142/128 144/144/130
f 146/146/132 142/142/128 145/145/131
f 147/147/133 142/142/128 146/146/132
f 148/148/134 142/142/128 147/147/133
f 149/149/135 132/132/118 133/133/119
f 149/149/135 138/138/125 132/132/118
f 149/149/135 139/139/126 138/138/125
f 149/149/135 150/150/136 139/139/126
f 149/149/135 133/133/119 150/150/136
f 151/151/137 152/152/132 153/153/138
f 151/151/137 153/153/138 154/154/130
f 151/151/137 154/154/130 155/155/127
f 152/152/132 156/156/139 157/157/140
f 151/151/137 156/156/139 152/152/132
f 155/155/127 156/156/139 151/151/137
f 158/158/129 156/156/139 155/155/127
f 159/159/141 156/156/139 158/158/129
f 160/160/142 161/161/143 126/126/95
f 160/160/142 162/162/144 161/161/143
f 160/160/142 163/163/145 162/162/144
f 164/164/146 165/165/142 131/131/95
f 166/166/144 165/165/142 164/164/146
f 167/167/147 165/165/142 166/166/144
f 168/168/148 162/162/144 163/163/145
f 168/168/148 169/169/149 162/162/144
f 168/168/148 170/170/150 169/169/149
f 168/168/148 171/171/151 170/170/150
f 168/168/148 163/163/145 171/171/151
f 172/172/149 173/173/150 174/174/152
f 175/175/153 176/176/154 177/177/155
f 178/178/156 176/176/154 175/175/153
f 179/179/157 176/176/154 178/178/156
f 180/180/158 176/176/154 179/179/157
f 181/181/159 176/176/154 180/180/158
f 182/182/160 176/176/154 181/181/159
f 183/183/161 167/167/147 166/166/144
f 184/184/162 185/185/151 167/167/147
f 184/184/162 174/174/152 185/185/151
f 184/184/162 172/172/149 174/174/152
f 184/184/162 166/166/144 172/172/149
f 186/186/157 187/187/156 188/188/163
f 189/189/164 186/186/157 188/188/163
f 190/190/159 189/189/164 188/188/163
f 191/191/160 192/192/165 193/193/154
f 190/190/159 192/192/165 191/191/160
f 188/188/163 192/192/165 190/190/159
f 187/187/156 192/192/165 188/188/163
f 194/194/166 192/192/165 187/187/156
f 113/113/108 115/115/110 114/114/109
f 123/123/115 113/113/108 114/114/109
f 99/99/95 108/108/104 107/107/103
f 110/110/106 120/120/112 122/122/114
