# Blender v2.90.1 OBJ File: 'siro.blend'
# www.blender.org
mtllib Siro-Stagenum-022.mtl
o Shape_IndexedFaceSet.057_Shape_IndexedFaceSet.176
v -6.466748 0.001712 -21.717474
v -6.466748 3.972841 -21.717476
v -6.466748 0.001712 -21.615107
v -6.466748 3.972841 -21.615108
v -10.023132 0.001712 -21.615107
v -10.023132 3.972841 -21.615105
v -10.023132 0.001712 -21.717474
v -10.023132 3.972841 -21.717472
vt 0.000000 0.000000
vt 1.000000 0.000000
vt 1.000000 1.000000
vt 0.000000 0.000000
vt 1.000000 0.000000
vt 0.000000 0.000000
vt 1.000000 0.000000
vt 1.000000 1.000000
vt 0.000000 0.000000
vt 1.000000 0.000000
vt 0.000000 0.000000
vt 1.000000 0.000000
vt 1.000000 1.000000
vt 1.000000 0.000000
vt 1.000000 1.000000
vt 0.000000 0.000000
vn 1.0000 0.0000 0.0000
vn -1.0000 -0.0000 0.0000
vn 0.0000 -1.0000 0.0000
vn 0.0000 1.0000 0.0000
usemtl Shape.3249
s 1
f 1/1/1 2/2/1 3/3/1
f 2/4/1 4/5/1 3/3/1
f 5/6/2 6/7/2 7/8/2
f 6/9/2 8/10/2 7/8/2
f 7/11/3 1/12/3 5/13/3
f 1/1/3 3/14/3 5/13/3
f 2/4/4 8/10/4 4/15/4
f 8/16/4 6/7/4 4/15/4
o Shape_IndexedFaceSet.056_Shape_IndexedFaceSet.175
v -10.023132 0.001712 -21.717474
v -10.023132 3.972841 -21.717472
v -6.466748 0.001712 -21.717474
v -6.466748 3.972841 -21.717476
v -6.466748 0.001712 -21.615107
v -6.466748 3.972841 -21.615108
v -10.023132 0.001712 -21.615107
v -10.023132 3.972841 -21.615105
vt 0.984375 0.023438
vt 0.984375 0.585938
vt 0.078125 0.023438
vt 0.078125 0.585938
vt 0.078125 0.023438
vt 0.078125 0.585938
vt 0.984375 0.023438
vt 0.984375 0.585938
vn 0.0000 0.0000 -1.0000
vn 0.0000 0.0000 1.0000
usemtl Shape.3248
s 1
f 9/17/5 10/18/5 11/19/5
f 10/18/5 12/20/5 11/19/5
f 13/21/6 14/22/6 15/23/6
f 14/22/6 16/24/6 15/23/6
o Shape_IndexedFaceSet.055_Shape_IndexedFaceSet.174
v -6.466748 0.001712 -21.615107
v -6.466748 3.972841 -21.615108
v -6.466748 0.001712 -21.717474
v -6.466748 3.972841 -21.717476
v -2.910364 0.001712 -21.717474
v -2.910364 3.972841 -21.717476
v -2.910364 0.001712 -21.615107
v -2.910364 3.972841 -21.615108
vt 0.000000 0.000000
vt 1.000000 0.000000
vt 1.000000 1.000000
vt 0.000000 0.000000
vt 1.000000 0.000000
vt 0.000000 0.000000
vt 1.000000 0.000000
vt 1.000000 1.000000
vt 0.000000 0.000000
vt 1.000000 0.000000
vt 0.000000 0.000000
vt 1.000000 0.000000
vt 1.000000 1.000000
vt 1.000000 0.000000
vt 1.000000 1.000000
vt 0.000000 0.000000
vn -1.0000 0.0000 0.0000
vn 1.0000 0.0000 0.0000
vn 0.0000 -1.0000 0.0000
vn 0.0000 1.0000 0.0000
usemtl Shape.3247
s 1
f 17/25/7 18/26/7 19/27/7
f 18/28/7 20/29/7 19/27/7
f 21/30/8 22/31/8 23/32/8
f 22/33/8 24/34/8 23/32/8
f 23/35/9 17/36/9 21/37/9
f 17/25/9 19/38/9 21/37/9
f 18/28/10 24/34/10 20/39/10
f 24/40/10 22/31/10 20/39/10
o Shape_IndexedFaceSet.054_Shape_IndexedFaceSet.173
v -2.910364 0.001712 -21.615107
v -2.910364 3.972841 -21.615108
v -6.466748 0.001712 -21.615107
v -6.466748 3.972841 -21.615108
v -6.466748 0.001712 -21.717474
v -6.466748 3.972841 -21.717476
v -2.910364 0.001712 -21.717474
v -2.910364 3.972841 -21.717476
vt 0.984375 0.023438
vt 0.984375 0.585938
vt 0.078125 0.023438
vt 0.078125 0.585938
vt 0.078125 0.023438
vt 0.078125 0.585938
vt 0.984375 0.023438
vt 0.984375 0.585938
vn 0.0000 0.0000 1.0000
vn 0.0000 -0.0000 -1.0000
usemtl Shape.3246
s 1
f 25/41/11 26/42/11 27/43/11
f 26/42/11 28/44/11 27/43/11
f 29/45/12 30/46/12 31/47/12
f 30/46/12 32/48/12 31/47/12
o Shape_IndexedFaceSet.017_Shape_IndexedFaceSet.041
v -2.910038 0.001712 -23.711401
v -2.910038 3.773980 -23.711401
v -10.023458 0.001712 -23.711401
v -10.023458 3.773980 -23.711399
v -20.478027 22.635319 -8.730103
v 1.185570 22.635319 -8.730106
v -20.478025 22.635321 12.933492
v 1.185570 22.635321 12.933492
vt 0.000000 0.000000
vt 1.000000 0.000000
vt 1.000000 1.000000
vt 0.000000 0.000000
vt 1.000000 0.000000
vt 0.000000 0.000000
vt 1.000000 0.000000
vt 1.000000 1.000000
vt 0.000000 0.000000
vt 1.000000 0.000000
vn 0.0000 0.0000 1.0000
vn 0.0000 -1.0000 0.0000
usemtl Shape.054
s 1
f 33/49/13 34/50/13 35/51/13
f 34/52/13 36/53/13 35/51/13
f 37/54/14 38/55/14 39/56/14
f 38/57/14 40/58/14 39/56/14
o Shape_IndexedFaceSet.016_Shape_IndexedFaceSet.040
v 21.555819 16.168575 12.933486
v 1.077791 16.168575 12.933490
v 1.077788 16.168575 -21.555819
v 1.077791 16.168573 -8.622327
v -20.478027 16.168573 -8.622327
v 21.555819 16.168575 -21.555819
v -20.478027 16.168575 -21.555817
vt -0.015625 9.984375
vt 5.828125 9.984375
vt 5.828125 -0.015625
vt 0.828125 9.984375
vt 0.828125 3.734375
vt 0.828125 -0.015625
vt 5.828125 3.734375
vt 11.984375 3.734375
vt -0.015625 -0.015625
vt 11.984375 -0.015625
vn 0.0000 -1.0000 -0.0000
vn 0.0002 -1.0000 -0.0000
vn 0.0790 -0.9969 -0.0005
usemtl Shape.053
s 1
f 41/59/15 42/60/16 43/61/15
f 42/62/16 44/63/17 43/64/15
f 43/61/15 44/65/17 45/66/15
f 46/67/15 41/59/15 43/61/15
f 47/68/15 43/61/15 45/66/15
o Shape_IndexedFaceSet.015_Shape_IndexedFaceSet.039
v -5.173399 0.109491 -21.555820
v -7.760098 0.109491 -21.555820
v -5.173399 0.109491 -20.262472
v -7.760098 0.109491 -20.262472
vt -0.015625 0.492188
vt 1.984375 0.492188
vt -0.015625 0.992188
vt 1.984375 0.992188
vn 0.0000 1.0000 0.0000
usemtl Shape.052
s 1
f 48/69/18 49/70/18 50/71/18
f 49/70/18 51/72/18 50/71/18
o Shape_IndexedFaceSet.014_Shape_IndexedFaceSet.038
v 1.185570 22.635319 -8.730106
v 1.185570 16.168573 -8.730105
v 1.185570 22.635321 12.933492
v 1.185570 16.168575 12.933490
v -20.478027 22.635319 -8.730103
v -20.478027 16.168573 -8.730105
v -20.478025 22.635321 12.933492
v -20.478025 16.168575 12.933493
vt 0.515625 0.984375
vt 0.953125 0.984375
vt 0.515625 -0.015625
vt 0.953125 -0.015625
vt 0.515625 0.984375
vt 0.953125 0.984375
vt 0.515625 -0.015625
vt 0.953125 -0.015625
vt 0.515625 -0.015625
vt 0.953125 -0.015625
vt 0.515625 0.984375
vt 0.953125 0.984375
vn -1.0000 -0.0000 0.0000
vn 0.0000 -0.0000 1.0000
vn 1.0000 -0.0000 -0.0000
vn 0.0000 0.0000 -1.0000
usemtl Shape.051
s 1
f 52/73/19 53/74/19 54/75/19
f 53/74/19 55/76/19 54/75/19
f 56/77/20 57/78/20 52/79/20
f 57/78/20 53/80/20 52/79/20
f 58/81/21 59/82/21 56/77/21
f 59/82/21 57/78/21 56/77/21
f 54/75/22 55/76/22 58/83/22
f 55/76/22 59/84/22 58/83/22
o Shape_IndexedFaceSet.013_Shape_IndexedFaceSet.037
v -2.910038 0.001712 -21.555820
v -2.910038 3.773980 -21.555819
v -2.910038 0.001712 -23.711401
v -2.910038 3.773980 -23.711401
v -10.023458 0.001712 -21.555819
v -10.023458 0.001712 -23.711401
v -10.023458 3.773980 -23.711399
v -10.023458 3.773980 -21.555819
v -11.316802 0.001712 12.933494
v -11.316802 3.773980 12.933491
v -11.316802 0.001711 15.089074
v -11.316802 3.773979 15.089072
v -8.083432 0.001712 12.933494
v -8.083432 0.001711 15.089074
v -8.083432 3.773979 15.089072
v -8.083432 3.773980 12.933491
vt 0.953125 0.984375
vt 0.953125 -0.015625
vt 0.515625 0.984375
vt 0.515625 -0.015625
vt 0.953125 0.984375
vt 0.953125 -0.015625
vt 0.515625 0.984375
vt 0.515625 -0.015625
vt 0.515625 -0.015625
vt 0.953125 -0.015625
vt 0.953125 0.984375
vt 0.515625 0.984375
vt 0.953125 0.984375
vt 0.953125 -0.015625
vt 0.515625 0.984375
vt 0.515625 -0.015625
vt 0.953125 0.984375
vt 0.953125 -0.015625
vt 0.515625 0.984375
vt 0.515625 -0.015625
vt 0.515625 -0.015625
vt 0.953125 -0.015625
vt 0.953125 0.984375
vt 0.515625 0.984375
vn -1.0000 0.0000 0.0000
vn 0.0000 1.0000 0.0000
vn 1.0000 -0.0000 0.0000
vn 0.0000 -1.0000 -0.0000
usemtl Shape.042
s 1
f 60/85/23 61/86/23 62/87/23
f 61/86/23 63/88/23 62/87/23
f 64/89/24 60/90/24 65/91/24
f 60/90/24 62/92/24 65/91/24
f 65/91/25 66/93/25 64/89/25
f 66/93/25 67/94/25 64/89/25
f 61/86/26 67/95/26 63/88/26
f 67/95/26 66/96/26 63/88/26
f 68/97/25 69/98/25 70/99/25
f 69/98/25 71/100/25 70/99/25
f 72/101/24 68/102/24 73/103/24
f 68/102/24 70/104/24 73/103/24
f 73/103/23 74/105/23 72/101/23
f 74/105/23 75/106/23 72/101/23
f 69/98/26 75/107/26 71/100/26
f 75/107/26 74/108/26 71/100/26
o Shape_IndexedFaceSet.012_Shape_IndexedFaceSet.036
v 21.555819 0.001712 12.933488
v 1.185570 0.001712 12.933491
v 1.185570 6.468457 12.933492
v 21.555819 6.468457 12.933489
vt -0.015625 -0.007812
vt 5.953125 -0.007812
vt 5.953125 0.992188
vt -0.015625 0.992188
vn -0.0000 0.0000 -1.0000
usemtl Shape.041
s 1
f 76/109/27 77/110/27 78/111/27
f 79/112/27 76/109/27 78/111/27
o Shape_IndexedFaceSet.011_Shape_IndexedFaceSet.035
v -20.478027 6.468457 -21.555817
v -20.478027 6.468455 -8.730104
v -20.478027 0.001712 -21.555819
v -20.478027 6.468455 -8.730104
v -20.478027 0.001712 -8.730105
v -20.478027 0.001712 -21.555819
vt 3.953125 0.992188
vt 0.015625 0.992188
vt 3.953125 -0.007812
vt 0.015625 0.992188
vt 0.015625 -0.007812
vt 3.953125 -0.007812
vn 1.0000 0.0000 0.0000
usemtl Shape.040
s 1
f 80/113/28 81/114/28 82/115/28
f 83/116/28 84/117/28 85/118/28
o Shape_IndexedFaceSet.010_Shape_IndexedFaceSet.034
v -11.316802 6.468457 12.933492
v -8.083432 6.468457 12.933492
v -11.316802 3.773980 12.933491
v -8.083432 3.773980 12.933491
v -4.850059 0.001712 12.933491
v -4.850059 6.468457 12.933492
v -11.316802 0.001712 12.933494
v -14.550178 0.001712 12.933494
v -14.550178 6.468457 12.933492
v -8.083432 0.001712 12.933494
v 21.555819 0.001712 -21.555820
v 21.555819 6.468457 -21.555820
v 7.544534 0.001712 -21.555820
v 7.544534 6.468457 -21.555819
vt 1.953125 0.992188
vt 0.984375 0.992188
vt 1.953125 0.570312
vt 0.984375 0.570312
vt -0.015625 -0.007812
vt -0.015625 0.992188
vt 1.953125 -0.007812
vt 2.953125 -0.007812
vt 2.953125 0.992188
vt 0.984375 -0.007812
vt -0.015625 -0.007812
vt -0.015625 0.992188
vt 3.953125 -0.007812
vt 3.953125 0.992188
vn 0.0000 0.0000 -1.0000
vn 0.0000 0.0000 1.0000
usemtl Shape.039
s 1
f 86/119/29 87/120/29 88/121/29
f 87/120/29 89/122/29 88/121/29
f 89/122/29 87/120/29 90/123/29
f 87/120/29 91/124/29 90/123/29
f 92/125/29 93/126/29 94/127/29
f 95/128/29 89/122/29 90/123/29
f 86/119/29 88/121/29 94/127/29
f 88/121/29 92/125/29 94/127/29
f 96/129/30 97/130/30 98/131/30
f 97/130/30 99/132/30 98/131/30
o Shape_IndexedFaceSet.009_Shape_IndexedFaceSet.033
v 21.555819 6.468457 -21.555820
v 21.555819 0.001712 -21.555820
v 21.555819 6.468457 12.933489
v 21.555819 0.001712 12.933488
vt 9.984375 0.992188
vt 9.984375 -0.007812
vt -0.015625 0.992188
vt -0.015625 -0.007812
vn -1.0000 0.0000 0.0000
usemtl Shape.038
s 1
f 100/133/31 101/134/31 102/135/31
f 101/134/31 103/136/31 102/135/31
o Shape_IndexedFaceSet.008_Shape_IndexedFaceSet.032
v -20.478025 6.468457 12.933495
v -20.478025 0.001712 12.933494
v -20.478027 6.468455 -8.730104
v -20.478027 0.001712 -8.730105
vt -0.015625 0.992188
vt -0.015625 -0.007812
vt 5.953125 0.992188
vt 5.953125 -0.007812
vn 1.0000 0.0000 -0.0000
usemtl Shape.008
s 1
f 104/137/32 105/138/32 106/139/32
f 105/138/32 107/140/32 106/139/32
o Shape_IndexedFaceSet.007_Shape_IndexedFaceSet.016
v 1.185570 6.468457 12.933492
v 1.185570 0.001712 12.933491
v -4.850059 6.468457 12.933492
v -4.850059 0.001712 12.933491
v -20.478025 0.001712 12.933494
v -20.478025 6.468457 12.933495
v -14.550178 0.001712 12.933494
v -14.550178 6.468457 12.933492
vt -0.015625 0.992188
vt -0.015625 -0.007812
vt 1.953125 0.992188
vt 1.953125 -0.007812
vt 1.953125 -0.007812
vt 1.953125 0.992188
vt -0.015625 -0.007812
vt -0.015625 0.992188
vn 0.0000 0.0000 -1.0000
usemtl Shape.007
s 1
f 108/141/33 109/142/33 110/143/33
f 109/142/33 111/144/33 110/143/33
f 112/145/33 113/146/33 114/147/33
f 113/146/33 115/148/33 114/147/33
o Shape_IndexedFaceSet.006_Shape_IndexedFaceSet.015
v -20.478027 16.168575 -21.555817
v -20.478027 6.468457 -21.555817
v 21.555819 16.168575 -21.555819
v 21.555819 6.468457 -21.555820
v 21.555819 6.468457 12.933489
v 1.077791 6.468457 12.933492
v -20.478025 6.468457 12.933495
v 1.077788 16.168575 -21.555819
v 1.077791 16.168575 12.933490
v 21.555819 16.168575 12.933486
v -20.478025 16.168575 12.933493
vt 7.984375 0.992188
vt 7.984375 -0.007812
vt -0.015625 0.992188
vt -0.015625 -0.007812
vt -0.015625 -0.007812
vt 3.859375 -0.007812
vt 7.984375 -0.007812
vt 3.859375 0.992188
vt 3.859375 0.992188
vt -0.015625 0.992188
vt 7.984375 0.992188
vn 0.0000 0.0000 1.0000
vn 0.0000 0.8397 0.5431
vn 0.0000 0.3047 0.9524
vn -0.0000 -0.0000 -1.0000
usemtl Shape.006
s 1
f 116/149/34 117/150/34 118/151/34
f 117/150/34 119/152/34 118/151/34
f 120/153/35 121/154/35 122/155/35
f 123/156/36 116/149/36 118/151/36
f 124/157/37 125/158/37 122/155/37
f 125/158/37 120/153/37 122/155/37
f 126/159/37 124/157/37 122/155/37
o Shape_IndexedFaceSet.005_Shape_IndexedFaceSet.014
v 21.555819 16.168575 -21.555819
v 21.555819 6.468457 -21.555820
v 21.555819 16.168575 12.933486
v 21.555819 6.468457 12.933489
v -20.478025 16.168575 12.933493
v -20.478025 6.468457 12.933495
v -20.478027 16.168575 -21.555817
v -20.478027 6.468457 -21.555817
v -20.478027 16.168573 -8.622327
vt 6.984375 0.992188
vt 6.984375 -0.007812
vt -0.015625 0.992188
vt -0.015625 -0.007812
vt -0.015625 0.992188
vt -0.015625 -0.007812
vt 6.984375 0.992188
vt 6.984375 -0.007812
vt 4.359375 0.992188
vn -1.0000 0.0000 0.0000
vn 1.0000 0.0000 -0.0000
vn -0.8575 0.5145 0.0000
usemtl Shape.005
s 1
f 127/160/38 128/161/38 129/162/38
f 128/161/38 130/163/38 129/162/38
f 131/164/39 132/165/39 133/166/39
f 132/165/39 134/167/39 133/166/39
f 135/168/40 131/164/40 133/166/40
o Shape_IndexedFaceSet.004_Shape_IndexedFaceSet.013
v -20.478027 0.001712 -21.555819
v -20.478027 0.001712 -8.730105
v 21.555819 0.001712 -21.555820
v 1.185570 0.001712 -8.730107
v -2.910038 0.001712 -21.555820
v -10.023458 0.001712 -21.555819
v 7.544534 0.001712 -21.555820
vt 13.984375 0.039062
vt 13.984375 1.898438
vt -0.015625 0.039062
vt 6.765625 1.898438
vt 8.109375 0.039062
vt 10.484375 0.039062
vt 4.640625 0.039062
vn -0.0000 1.0000 -0.0000
vn 0.0000 -0.4364 0.8998
vn 0.0000 0.5451 -0.8384
usemtl Shape.004
s 1
f 136/169/41 137/170/41 138/171/41
f 137/170/41 139/172/41 138/171/41
f 140/173/41 141/174/41 138/171/41
f 141/174/42 136/169/42 138/171/42
f 142/175/43 140/173/43 138/171/43
o Shape_IndexedFaceSet.003_Shape_IndexedFaceSet.012
v 1.185570 0.001712 12.933491
v 21.555819 0.001712 12.933488
v 1.185570 0.001712 -8.730107
v 21.555819 0.001712 -21.555820
vt -0.015625 2.429688
vt -0.015625 0.007812
vt 7.515625 2.429688
vt 11.984375 0.007812
vn 0.0000 1.0000 0.0000
usemtl Shape.003
s 1
f 143/176/44 144/177/44 145/178/44
f 144/177/44 146/179/44 145/178/44
o Shape_IndexedFaceSet.002_Shape_IndexedFaceSet.011
v 1.185570 0.001712 -8.730107
v -20.478027 0.001712 -8.730105
v -14.550178 0.001712 12.933494
v -20.478025 0.001712 12.933494
v -4.850059 0.001712 12.933491
v 1.185570 0.001712 12.933491
v -11.316802 0.001712 12.933494
v -8.083432 0.001712 12.933494
vt 0.015625 -0.007812
vt 7.953125 -0.007812
vt 5.765625 3.976562
vt 7.953125 3.976562
vt 2.234375 0.976562
vt 0.015625 0.976562
vt 5.765625 0.976562
vt 0.015625 3.976562
vt 4.578125 0.976562
vt 3.390625 0.976562
vn 0.0000 1.0000 0.0000
vn 0.0000 -1.0000 -0.0002
vn 0.0000 0.0000 -1.0000
usemtl Shape.002
s 1
f 147/180/45 148/181/45 149/182/45
f 148/181/45 150/183/45 149/182/45
f 151/184/46 152/185/46 149/186/46
f 152/187/45 147/180/45 149/182/45
f 153/188/47 154/189/47 149/186/47
f 154/189/45 151/184/45 149/186/45
o Shape_IndexedFaceSet.001_Shape_IndexedFaceSet.010
v -20.478027 6.468457 -21.555817
v -20.478027 0.001712 -21.555819
v -10.023458 3.773980 -21.555819
v -10.023458 0.001712 -21.555819
v -2.910038 0.001712 -21.555820
v 7.544534 0.001712 -21.555820
v 7.544534 6.468457 -21.555819
v -2.910038 3.773980 -21.555819
vt 7.953125 0.992188
vt 7.953125 -0.007812
vt 4.984375 0.570312
vt 4.984375 -0.007812
vt 2.953125 -0.007812
vt -0.015625 -0.007812
vt -0.015625 0.992188
vt 2.953125 0.570312
vn 0.0000 -0.0000 1.0000
usemtl Shape.001
s 1
f 155/190/48 156/191/48 157/192/48
f 156/191/48 158/193/48 157/192/48
f 159/194/48 160/195/48 161/196/48
f 161/196/48 155/190/48 157/192/48
f 157/192/48 162/197/48 161/196/48
f 162/197/48 159/194/48 161/196/48
o Shape_IndexedFaceSet_Shape_IndexedFaceSet.009
v -20.478027 15.953017 -8.622327
v -20.478027 15.953018 -9.700117
v 1.077791 15.953017 -8.622327
v 2.155582 15.953018 -9.700120
v -20.478027 16.599689 -8.622326
v 1.077791 16.599689 -8.622326
v 2.155582 16.599693 12.933491
v 2.155582 15.953018 12.933490
v 2.155582 16.599689 -9.700119
v 1.077791 15.953018 12.933490
v 1.077791 16.599693 12.933491
v -20.478027 16.599689 -9.700116
vt 2.992188 -0.015625
vt 2.992188 0.984375
vt 0.132812 -0.015625
vt -0.007812 0.984375
vt 2.992188 -0.015625
vt 0.132812 -0.015625
vt 2.992188 0.015625
vt 2.992188 0.015625
vt -0.007812 0.015625
vt -0.007812 0.015625
vt 2.992188 0.921875
vt 2.992188 0.921875
vt 0.132812 0.921875
vt 0.132812 0.921875
vt 2.992188 0.984375
vt -0.007812 0.984375
vn 0.0000 -1.0000 -0.0000
vn 0.0000 -0.0000 1.0000
vn 1.0000 0.0000 0.0000
vn -1.0000 -0.0000 0.0000
vn -0.0000 0.0000 -1.0000
usemtl Shape
s 1
f 163/198/49 164/199/49 165/200/49
f 164/199/49 166/201/49 165/200/49
f 167/202/50 163/198/50 168/203/50
f 163/198/50 165/200/50 168/203/50
f 169/204/51 170/205/51 171/206/51
f 170/205/51 166/207/51 171/206/51
f 172/208/52 173/209/52 165/210/52
f 173/209/52 168/211/52 165/210/52
f 164/199/53 174/212/53 166/201/53
f 174/212/53 171/213/53 166/201/53
f 170/205/49 172/208/49 166/207/49
f 172/208/49 165/210/49 166/207/49
